HIERARCHY
ROOT root
{
	OFFSET	0	13.1	24.9
	CHANNELS 6  Xposition Yposition Zposition Xrotation Yrotation Zrotation
	JOINT spine_1
	{
		OFFSET	0	9.99999	0
		CHANNELS 3  Xrotation Yrotation Zrotation
		JOINT spine_2
		{
			OFFSET	0	112	-10
			CHANNELS 3  Xrotation Yrotation Zrotation
			JOINT spine_3
			{
				OFFSET	0	206.5	19.3
				CHANNELS 3  Xrotation Yrotation Zrotation
				JOINT spine_4
				{
					OFFSET	0	110.4	14.6
					CHANNELS 3  Xrotation Yrotation Zrotation
					JOINT neck_1
					{
						OFFSET	0	71.8	-50.3
						CHANNELS 3  Xrotation Yrotation Zrotation
						JOINT neck_2
						{
							OFFSET	0	86.2	-25.8
							CHANNELS 3  Xrotation Yrotation Zrotation
							JOINT head_ee
							{
								OFFSET	0	179.8	-8.7
								CHANNELS 3  Xrotation Yrotation Zrotation
								End Site
								{
									OFFSET	1	0	0
								}
							}
						}
					}
					JOINT left_clavicle
					{
						OFFSET	-43.2	22.4	-70.8
						CHANNELS 3  Xrotation Yrotation Zrotation
						JOINT left_shoulder
						{
							OFFSET	-93.9	-5.79999	48.7
							CHANNELS 3  Xrotation Yrotation Zrotation
							JOINT left_elbow
							{
								OFFSET	-291.4	-30.8	15.2
								CHANNELS 3  Xrotation Yrotation Zrotation
								JOINT left_lowarm_twist
								{
									OFFSET	-110.7	-3.89999	13.6
									CHANNELS 3  Xrotation Yrotation Zrotation
									JOINT left_hand
									{
										OFFSET	-110.7	-3.89999	13.6
										CHANNELS 3  Xrotation Yrotation Zrotation
										JOINT left_ee
										{
											OFFSET	-80.8	-5.10001	12.1
											CHANNELS 3  Xrotation Yrotation Zrotation
											End Site
											{
												OFFSET	1	0	0
											}
										}
									}
								}
							}
						}
					}
					JOINT right_clavicle
					{
						OFFSET	43.2	22.4	-70.8
						CHANNELS 3  Xrotation Yrotation Zrotation
						JOINT right_shoulder
						{
							OFFSET	93.9	-5.79999	48.7
							CHANNELS 3  Xrotation Yrotation Zrotation
							JOINT right_elbow
							{
								OFFSET	291.4	-30.8	15.2
								CHANNELS 3  Xrotation Yrotation Zrotation
								JOINT right_lowarm_twist
								{
									OFFSET	110.7	-3.89999	13.6
									CHANNELS 3  Xrotation Yrotation Zrotation
									JOINT right_hand
									{
										OFFSET	110.7	-3.89999	13.6
										CHANNELS 3  Xrotation Yrotation Zrotation
										JOINT right_ee
										{
											OFFSET	80.8	-5.10001	12.1
											CHANNELS 3  Xrotation Yrotation Zrotation
											End Site
											{
												OFFSET	1	0	0
											}
										}
									}
								}
							}
						}
					}
				}
			}
		}
	}
	JOINT left_hip
	{
		OFFSET	-82.8	-127.5	0.300001
		CHANNELS 3  Xrotation Yrotation Zrotation
		JOINT left_knee
		{
			OFFSET	-28.2	-396.7	2.2
			CHANNELS 3  Xrotation Yrotation Zrotation
			JOINT left_ankle
			{
				OFFSET	-11.7	-411.3	35.4
				CHANNELS 3  Xrotation Yrotation Zrotation
				JOINT left_toes
				{
					OFFSET	0	-60	-88.6
					CHANNELS 3  Xrotation Yrotation Zrotation
					JOINT left_foot_ee
					{
						OFFSET	-22.5	-16.5	-42.2
						CHANNELS 3  Xrotation Yrotation Zrotation
						End Site
						{
							OFFSET	1	0	0
						}
					}
				}
			}
		}
	}
	JOINT right_hip
	{
		OFFSET	82.8	-127.5	0.300001
		CHANNELS 3  Xrotation Yrotation Zrotation
		JOINT right_knee
		{
			OFFSET	28.2	-396.7	2.2
			CHANNELS 3  Xrotation Yrotation Zrotation
			JOINT right_ankle
			{
				OFFSET	11.7	-411.3	35.4
				CHANNELS 3  Xrotation Yrotation Zrotation
				JOINT right_toes
				{
					OFFSET	0	-60	-88.6
					CHANNELS 3  Xrotation Yrotation Zrotation
					JOINT right_foot_ee
					{
						OFFSET	22.5	-16.5	-42.2
						CHANNELS 3  Xrotation Yrotation Zrotation
						End Site
						{
							OFFSET	1	0	0
						}
					}
				}
			}
		}
	}
}
MOTION
Frames: 12
Frame Time: 0.02
1372.05 701.618 -1475.22 -5.00805442251 63.2834197424 -5.12642367271 -1.33955 0.646315 4.75189 -1.32706 0.342984 4.78329 -1.28759 -0.777914 4.73217 -1.31882 -0.0216873 4.7955 -13.4064 3.57128 -2.84646 -13.4333 8.56678 -1.62417 -0.0 0.0 -0.0 -5.39154 22.7248 -4.90817 26.0334 -33.9029 69.3202 3.67708 -61.2176 2.17586 -32.2789 -2.16992 3.45281 -1.70749 6.76972 -8.33061 -0.0 0.0 -0.0 12.2248 20.6899 -24.4001 -27.3967 30.1952 -62.9086 0.250474 7.07313 -0.0154801 24.0902 -0.210908 3.04749 2.36284 15.8811 -9.10765 0.0 0.0 0.0 -11.4833 5.80839 20.9138 -21.2099 0.279297 3.22428 42.5225 24.4473 -5.38466 -37.9055 0.0 0.0 -0.0 0.0 -0.0 44.3567 7.49765 -0.347416 -23.395 -0.2399 -3.55725 38.4208 -21.6588 4.91936 9.07769 -0.0 -0.0 0.0 0.0 0.0 
1316.68029806 705.692 -1491.31209085 -6.26499718051 66.9448015231 -3.94540448949 -1.29983 0.719316 4.89161 -1.28661 0.40698 4.92735 -1.2401 -0.744981 4.88777 -1.27342 0.0353208 4.94396 -10.6533 2.57548 -4.39204 -10.6183 7.78304 -3.59848 -0.0 0.0 -0.0 -6.4497 23.8552 -6.07348 21.7458 -34.1996 69.775 3.32502 -58.7236 1.871 -32.0036 -2.14363 3.42925 -1.52117 4.79185 -8.01772 -0.0 0.0 -0.0 12.129 17.401 -24.3898 -26.0287 30.8916 -62.9121 0.210485 5.95276 -0.0109441 22.7309 -0.233294 2.87531 2.50875 15.6359 -10.2114 0.0 0.0 0.0 -13.6707 5.80033 20.6168 -21.9451 0.267459 3.33648 39.4408 25.6404 -5.13485 -40.3343 0.0 0.0 -0.0 0.0 -0.0 43.5703 8.32355 0.420085 -29.4918 -0.0631945 -4.4758 37.7979 -22.2422 4.8734 9.92835 -0.0 -0.0 0.0 0.0 0.0 
1282.1505649 702.605 -1499.20425314 -3.20688234645 67.2966663355 -7.24862243297 -1.30143 0.849676 5.02964 -1.28752 0.528327 5.07336 -1.22822 -0.659354 5.05804 -1.26388 0.146669 5.09862 -8.60049 3.03509 -3.46494 -8.572 8.09655 -2.73114 -0.0 0.0 -0.0 -6.81782 24.6037 -6.35084 19.8002 -34.1586 70.2766 2.83102 -54.4985 1.45824 -30.572 -2.00876 3.30467 -1.45277 4.85483 -7.53501 -0.0 0.0 -0.0 11.9991 16.3149 -24.1441 -25.3716 31.6893 -62.1237 0.203329 5.75175 -0.0102144 22.2554 -0.240158 2.81496 2.48902 14.4096 -10.6469 0.0 0.0 0.0 -14.1721 5.23474 20.3346 -26.0135 0.176001 3.95397 37.2141 26.0479 -4.92501 -40.1761 0.0 0.0 -0.0 0.0 -0.0 40.6228 8.00119 1.1882 -31.2011 0.00380911 -4.72954 38.0396 -21.9716 4.89019 9.77079 -0.0 -0.0 0.0 0.0 0.0 
1282.34698094 702.605 -1499.92872722 -3.14634532556 66.8351435916 -7.31435486859 -1.30143 0.849676 5.02964 -1.28752 0.528327 5.07336 -1.22822 -0.659354 5.05804 -1.26388 0.146669 5.09862 -8.60049 3.03509 -3.46494 -8.572 8.09655 -2.73114 -0.0 0.0 -0.0 -6.81782 24.6037 -6.35084 19.8002 -34.1586 70.2766 2.83102 -54.4985 1.45824 -30.572 -2.00876 3.30467 -1.45277 4.85483 -7.53501 -0.0 0.0 -0.0 11.9991 16.3149 -24.1441 -25.3716 31.6893 -62.1237 0.203329 5.75175 -0.0102144 22.2554 -0.240158 2.81496 2.48902 14.4096 -10.6469 0.0 0.0 0.0 -14.1721 5.23474 20.3346 -26.0135 0.176001 3.95397 37.2141 26.0479 -4.92501 -40.1761 0.0 0.0 -0.0 0.0 -0.0 40.6228 8.00119 1.1882 -31.2011 0.00380911 -4.72954 38.0396 -21.9716 4.89019 9.77079 -0.0 -0.0 0.0 0.0 0.0 
1254.13196274 699.284 -1506.06368151 -0.520334981085 69.1570886247 -9.65096875851 -1.32769 0.576749 4.95812 -1.31406 0.260483 4.98469 -1.27996 -0.90477 4.90899 -1.31355 -0.119139 4.99005 -7.05887 3.43789 -2.27352 -7.0396 8.02653 -1.57446 -0.0 0.0 -0.0 -7.15605 24.09 -6.98796 17.9865 -34.0179 70.9472 2.42212 -50.1832 1.1343 -29.1848 -1.88111 3.18082 -1.35374 5.50722 -6.5822 -0.0 0.0 -0.0 11.7406 15.4502 -23.5894 -23.5118 32.6002 -62.4453 0.197611 5.59105 -0.00964937 21.9786 -0.243925 2.7798 2.44521 13.1758 -10.9146 0.0 0.0 0.0 -15.0411 5.2546 19.1072 -28.9764 0.0819078 4.39892 31.3457 26.187 -4.29248 -40.3618 0.0 0.0 -0.0 0.0 -0.0 38.6813 8.37902 2.39005 -34.7061 0.164765 -5.24317 38.9064 -21.0755 4.95154 9.39453 -0.0 -0.0 0.0 0.0 0.0 
1254.5241717 699.284 -1507.52597287 -0.5039331816 68.4454225963 -9.66856065494 -1.32769 0.576749 4.95812 -1.31406 0.260483 4.98469 -1.27996 -0.90477 4.90899 -1.31355 -0.119139 4.99005 -7.05887 3.43789 -2.27352 -7.0396 8.02653 -1.57446 -0.0 0.0 -0.0 -7.15605 24.09 -6.98796 17.9865 -34.0179 70.9472 2.42212 -50.1832 1.1343 -29.1848 -1.88111 3.18082 -1.35374 5.50722 -6.5822 -0.0 0.0 -0.0 11.7406 15.4502 -23.5894 -23.5118 32.6002 -62.4453 0.197611 5.59105 -0.00964937 21.9786 -0.243925 2.7798 2.44521 13.1758 -10.9146 0.0 0.0 0.0 -15.0411 5.2546 19.1072 -28.9764 0.0819078 4.39892 31.3457 26.187 -4.29248 -40.3618 0.0 0.0 -0.0 0.0 -0.0 38.6813 8.37902 2.39005 -34.7061 0.164765 -5.24317 38.9064 -21.0755 4.95154 9.39453 -0.0 -0.0 0.0 0.0 0.0 
1181.40565901 706.1 -1513.43038698 4.49064666405 72.5845965733 -15.6726077897 -1.61356 0.838833 5.31046 -1.59802 0.499711 5.3529 -1.53627 -0.780901 5.31926 -1.57572 0.0677168 5.37569 -6.20132 4.32208 0.448036 -6.19629 7.66798 1.2747 -0.0 0.0 -0.0 -7.94014 22.6533 -8.60112 10.4682 -33.0527 70.8638 1.78337 -41.4545 0.674896 -26.7841 -1.66742 2.95933 -1.02062 5.47558 -4.40337 -0.0 0.0 -0.0 11.5146 14.6738 -23.1039 -14.3811 37.1596 -62.7389 0.33995 9.55919 -0.0284246 20.8766 -0.257231 2.63967 2.50133 10.4582 -12.5293 0.0 0.0 0.0 -11.1984 6.01352 16.8894 -36.0 -0.232093 5.4302 19.8463 25.3215 -2.85368 -39.4245 0.0 0.0 -0.0 0.0 -0.0 31.4501 10.8131 3.52434 -38.1838 0.355283 -5.74234 41.9129 -19.1106 5.18039 6.36918 -0.0 -0.0 0.0 0.0 0.0 
1182.39369532 706.1 -1518.06605606 4.16825488431 71.1918333949 -15.3334344895 -1.61356 0.838833 5.31046 -1.59802 0.499711 5.3529 -1.53627 -0.780901 5.31926 -1.57572 0.0677168 5.37569 -6.20132 4.32208 0.448036 -6.19629 7.66798 1.2747 -0.0 0.0 -0.0 -7.94014 22.6533 -8.60112 10.4682 -33.0527 70.8638 1.78337 -41.4545 0.674896 -26.7841 -1.66742 2.95933 -1.02062 5.47558 -4.40337 -0.0 0.0 -0.0 11.5146 14.6738 -23.1039 -14.3811 37.1596 -62.7389 0.33995 9.55919 -0.0284246 20.8766 -0.257231 2.63967 2.50133 10.4582 -12.5293 0.0 0.0 0.0 -11.1984 6.01352 16.8894 -36.0 -0.232093 5.4302 19.8463 25.3215 -2.85368 -39.4245 0.0 0.0 -0.0 0.0 -0.0 31.4501 10.8131 3.52434 -38.1838 0.355283 -5.74234 41.9129 -19.1106 5.18039 6.36918 -0.0 -0.0 0.0 0.0 0.0 
1158.40430613 705.488 -1520.60025532 5.10492357848 71.8843465698 -16.3328156139 -1.64546 0.825364 5.41905 -1.62926 0.47939 5.46042 -1.56786 -0.829274 5.41845 -1.60881 0.0355414 5.48124 -6.03333 4.50749 0.836113 -6.0267 7.71716 1.69086 -0.0 0.0 -0.0 -7.96787 22.9009 -8.5542 8.69806 -32.3232 70.9367 1.63315 -38.9704 0.57789 -24.6727 -1.48734 2.75736 -1.06291 4.85469 -4.95782 -0.0 0.0 -0.0 11.3233 12.7748 -22.7242 -10.3792 37.3114 -63.5627 0.433218 12.1124 -0.0459628 21.6067 -0.248717 2.73253 2.55187 11.4912 -12.4132 0.0 0.0 0.0 -10.8238 6.2985 16.4507 -37.9851 -0.343585 5.71414 21.156 25.5215 -3.02896 -39.415 0.0 0.0 -0.0 0.0 -0.0 30.8005 11.3722 3.4588 -42.0287 0.600849 -6.27991 41.6753 -18.9374 5.15553 8.11314 -0.0 -0.0 0.0 0.0 0.0 
1139.38404965 710.085 -1520.28530371 6.13467126647 71.3694935537 -17.5011746984 -1.6994 0.884509 5.56871 -1.68232 0.528937 5.61351 -1.61353 -0.821842 5.57827 -1.65692 0.0680019 5.63789 -6.61099 4.09484 1.18376 -6.60687 6.73035 1.99225 -0.0 0.0 -0.0 -7.88363 23.0227 -8.38886 6.58324 -31.4665 71.0351 1.43968 -35.4934 0.460774 -24.2304 -1.45058 2.71423 -1.03048 5.24119 -4.5723 -0.0 0.0 -0.0 11.2617 13.3303 -22.5724 -7.51429 38.1154 -64.4147 0.479996 13.3754 -0.0562823 21.4462 -0.25069 2.71213 2.55278 10.7571 -12.7505 0.0 0.0 0.0 -8.72225 7.21382 15.3529 -40.5486 -0.502034 6.07489 17.6442 25.256 -2.55846 -40.0908 0.0 0.0 -0.0 0.0 -0.0 27.8291 11.3136 3.95637 -38.0552 0.347702 -5.7241 42.215 -18.4465 5.19184 7.41907 -0.0 -0.0 0.0 0.0 0.0 
1111.67905254 724.238 -1515.21349094 4.89251389437 71.2464941349 -16.2135953495 -1.49578 0.955344 5.86149 -1.47687 0.581095 5.91016 -1.39911 -0.819757 5.88191 -1.44733 0.117771 5.9374 -13.728 3.41351 0.198404 -13.7571 6.38457 1.2466 -0.0 0.0 -0.0 -7.42636 22.4421 -7.92252 3.1137 -29.0005 71.6529 1.05278 -27.542 0.258029 -22.2446 -1.28966 2.51716 -0.810278 6.4738 -2.58602 -0.0 0.0 -0.0 11.4919 11.5888 -23.1236 -0.702718 39.4493 -65.3072 0.554603 15.3623 -0.0747998 20.7185 -0.258919 2.61955 2.9995 9.48543 -16.4353 0.0 0.0 0.0 -5.61793 9.25267 15.9531 -40.1329 -0.475244 6.01688 12.1901 23.0555 -1.78237 -40.154 0.0 0.0 -0.0 0.0 -0.0 22.786 11.7764 4.36164 -27.9022 -0.118681 -4.23816 32.0631 -16.9828 4.18193 -0.157914 0.0 0.0 0.0 0.0 0.0 
1113.49824781 724.238 -1525.65313435 4.37793133457 68.9489753734 -15.6664374811 -1.49578 0.955344 5.86149 -1.47687 0.581095 5.91016 -1.39911 -0.819757 5.88191 -1.44733 0.117771 5.9374 -13.728 3.41351 0.198404 -13.7571 6.38457 1.2466 -0.0 0.0 -0.0 -7.42636 22.4421 -7.92252 3.1137 -29.0005 71.6529 1.05278 -27.542 0.258029 -22.2446 -1.28966 2.51716 -0.810278 6.4738 -2.58602 -0.0 0.0 -0.0 11.4919 11.5888 -23.1236 -0.702718 39.4493 -65.3072 0.554603 15.3623 -0.0747998 20.7185 -0.258919 2.61955 2.9995 9.48543 -16.4353 0.0 0.0 0.0 -5.61793 9.25267 15.9531 -40.1329 -0.475244 6.01688 12.1901 23.0555 -1.78237 -40.154 0.0 0.0 -0.0 0.0 -0.0 22.786 11.7764 4.36164 -27.9022 -0.118681 -4.23816 32.0631 -16.9828 4.18193 -0.157914 0.0 0.0 0.0 0.0 0.0 
